<svg width="51" height="60" viewBox="0 0 167 167" fill="none" xmlns="http://www.w3.org/2000/svg">
<g clip-path="url(#clip0_2506_189)">
<path d="M134.712 8.15439L119.993 0.0148926C109.354 4.9199 99.0866 7.73669 89.0663 8.46856H77.933C68.1605 7.73669 57.7697 4.92018 47.0072 0.0148926L32.4106 8.15439L36.4924 14.1032L29.5651 17.0249L24.6169 12.4327L9.27774 20.8861C19.6688 40.0871 22.6377 58.6635 17.937 76.8215L16.5762 81.7257C13.2366 91.6395 7.66992 101.345 0 110.633C4.20591 116.684 9.27774 122.528 15.3392 127.956L8.78293 135.156L28.5754 150.078L37.3587 144.235C50.4706 152.27 65.9335 159.888 83.4997 166.985C101.313 159.888 116.651 152.27 129.64 144.235L138.548 150.078L158.216 135.156L151.783 127.956C157.722 122.634 162.793 116.894 167 110.633C159.452 101.345 154.011 91.7433 150.546 81.7257L149.063 76.8215C148.32 73.1693 147.701 70.4552 147.454 68.6812C146.712 62.7337 146.712 56.784 147.454 50.9404C148.938 40.8189 152.278 30.7999 157.722 20.8861L142.505 12.4327L137.558 17.0249L130.508 14.1032L134.712 8.15439V8.15439Z" fill="black"/>
<path d="M129.64 9.09451L119.868 3.66772C109.477 8.15448 99.3324 10.8677 89.4362 11.5993H77.6854C67.9128 10.8677 57.7698 8.15476 47.2547 3.66772L37.3587 9.09451L39.7088 12.538C40.0796 12.8508 40.2036 13.3726 40.2036 14.1033C40.2036 14.8338 40.0796 15.3559 39.7088 15.7736C39.3374 16.1904 38.8425 16.607 38.2243 16.9212L31.2966 19.8426C30.431 20.1557 29.6888 20.2595 28.9466 20.1557C28.2041 20.0516 27.4625 19.6339 26.844 19.1121L23.9985 16.5032L13.9785 22.0349C23.8748 41.0269 26.3488 59.4982 21.5244 77.5515L21.2773 78.5951H145.846L145.475 77.5515C141.888 63.5675 142.506 49.3754 147.454 35.0794C149.063 30.4875 150.919 25.9994 153.144 22.0349L143.124 16.5032L140.28 19.1121C139.537 19.7377 138.917 20.0516 138.176 20.1557C137.435 20.2595 136.693 20.1557 135.826 19.8426L128.898 16.9209C128.403 16.6068 127.909 16.1902 127.415 15.7733C127.042 15.3556 126.797 14.8335 126.797 14.1031C126.797 13.5813 127.043 13.0595 127.291 12.5377L129.64 9.09451V9.09451Z" fill="#CD3529"/>
<path d="M90.5501 25.3734L89.8088 25.5823L89.4361 26.1041C89.19 27.3567 88.6955 28.1913 87.8286 28.922C87.2107 29.4438 86.2211 29.6517 85.1074 29.6517C83.8701 29.6517 82.8811 29.4438 82.1386 29.0258V28.922C81.4125 28.4287 80.8571 27.7795 80.5308 27.0428C80.283 26.2093 80.0359 25.2696 80.0359 24.017C80.0359 22.7645 80.283 21.7212 80.6545 21.0953H80.5308C81.0256 20.1558 81.6441 19.6338 82.2626 19.3213C82.8811 18.7995 83.9941 18.5905 85.1074 18.5905C86.3441 18.5905 87.2107 18.7995 87.9533 19.3213C88.6952 19.5303 89.0659 20.1558 89.19 21.0953C89.3134 21.1991 89.4361 21.4081 89.5608 21.6171C89.6854 21.7212 89.9315 21.825 90.304 21.825H92.778C93.0248 21.825 93.1475 21.7212 93.3965 21.7212C93.6426 21.6171 93.766 21.513 93.766 21.3035L93.8907 20.7817C93.5193 18.7995 92.5287 17.4431 90.7981 16.3996C89.0663 15.356 87.2107 14.8342 85.1078 14.8342C83.3759 14.8342 82.0152 15.0421 80.7782 15.5639C79.5411 16.0857 78.5518 16.7126 77.6856 17.5472V17.651C76.944 18.4867 76.3255 19.4264 75.8303 20.5741C75.3355 21.6176 75.0885 22.7653 75.0885 24.1225C75.0885 26.5216 75.8304 28.5046 77.1911 30.174C77.6859 31.0097 78.5521 31.6353 79.7889 32.366C80.0366 32.366 80.16 32.366 80.2837 32.575C81.5207 33.0965 82.8814 33.4096 84.6133 33.5145C84.7373 33.4096 84.7373 33.4096 84.7373 33.5145C84.9847 33.4096 84.9847 33.4096 84.9847 33.5145C86.5925 33.4096 88.0773 33.0965 89.0666 32.6788C89.314 32.575 89.4367 32.575 89.6858 32.366C90.6738 31.8443 91.541 31.1132 92.4063 30.0699C93.3969 29.0264 93.891 27.879 94.0154 26.4175C94.0154 26.1047 94.0154 25.8957 93.8907 25.8957C93.8907 25.6878 93.766 25.478 93.5193 25.478C93.2719 25.3742 93.1472 25.3742 92.9014 25.3742H90.5501V25.3734V25.3734ZM52.5738 75.0463C52.5738 73.7948 52.203 72.8551 51.4608 72.1257C50.8426 71.29 49.9761 70.6642 48.739 70.2462C47.502 69.9334 46.265 69.8285 45.2757 69.8285H36.245L35.7502 70.1424C35.5031 70.2462 35.3794 70.4552 35.3794 70.768V86.6303L35.6265 87.257H35.7502C35.8739 87.4649 36.1219 87.5687 36.4924 87.5687H38.9665C39.3372 87.5687 39.585 87.4649 39.7087 87.257C39.9558 87.1519 40.0795 86.9429 40.0795 86.6303V80.6821H45.2753C46.0175 80.6821 46.6361 80.7859 46.8831 81.0998L47.0068 81.2038C47.2546 81.5177 47.378 81.9346 47.378 82.6651L47.5017 83.8127V83.9168L47.6254 85.4819C47.6254 86.0037 47.7491 86.5254 47.9965 86.9431C48.2439 87.1521 48.3679 87.2573 48.3679 87.3608C48.615 87.3608 48.7387 87.4649 48.9864 87.5687H52.079C52.4498 87.5687 52.6972 87.4649 52.8212 87.257C53.0683 87.1519 53.192 86.9429 53.192 86.6303V86.2132C53.192 86.0034 53.192 85.7955 53.0683 85.7955L52.4498 85.3778C52.4498 85.2737 52.4498 85.1699 52.3261 85.1699L52.079 81.8291V81.7253C52.079 80.5777 51.8313 79.742 51.2128 79.1164C51.0891 79.0124 50.9657 78.9083 50.7179 78.6987C50.842 78.6987 50.842 78.5947 50.842 78.5947L51.5842 77.9691C52.3264 77.1334 52.5738 76.1947 52.5738 75.0463V75.0463ZM44.9039 77.0293H40.0795V73.5858H45.399C46.8831 73.5858 47.6254 74.1076 47.6254 75.2561C47.6254 75.673 47.5017 76.1948 47.1306 76.6116C46.7594 76.8214 45.8938 77.0293 44.9039 77.0293V77.0293ZM130.877 76.8214C130.63 76.6116 130.383 76.6116 130.135 76.6116H122.095V73.5858H131.496L132.238 73.2731L132.486 72.6472V70.768C132.486 70.5601 132.486 70.3503 132.238 70.1424L131.496 69.8285H118.507C118.26 69.8285 117.888 69.9334 117.642 70.1424C117.519 70.3503 117.394 70.5601 117.394 70.768V86.6303C117.394 86.8393 117.519 87.0472 117.642 87.257C117.888 87.4649 118.26 87.5687 118.507 87.5687H120.981L121.724 87.257C121.972 87.1519 122.095 86.9429 122.095 86.6303V80.369H130.135C130.508 80.369 130.754 80.2641 130.877 80.0559C131.126 79.9521 131.249 79.742 131.249 79.4303V77.4473L130.877 76.8214V76.8214Z" fill="white"/>
<path d="M37.169 61.2725C37.169 62.524 37.6613 63.5673 38.3998 64.4029C39.2611 65.2375 40.2461 65.7593 41.4769 65.7593C42.7077 65.7593 43.8151 65.2375 44.4309 64.4029L44.6773 64.1942H57.8468C62.0313 69.203 66.2167 74.0031 70.155 78.5951L78.8938 88.301V91.5355L76.3091 94.458C74.0939 97.0669 69.663 101.553 63.3855 108.024C63.2624 108.128 63.2624 108.128 63.2624 108.232H63.14V108.336C63.0169 108.336 62.8935 108.44 62.7704 108.65L58.3391 105.205L54.6467 108.754L59.201 112.199L48.8625 121.798C44.9235 119.294 40.8618 116.163 37.0463 112.199L42.0929 108.024C36.1847 104.372 31.8768 99.048 29.1697 91.8488C23.7541 102.806 22.7691 112.721 26.0926 121.591L31.631 116.895C35.6927 120.651 39.5082 123.99 43.3238 126.809L36.4312 133.07C37.2931 135.991 38.5239 136.93 40.1236 135.679L46.8928 129.312C56.0009 135.573 66.8328 141.312 79.633 146.74L83.202 148.201C96.8641 142.774 108.926 136.512 119.634 129.312L126.404 135.679C127.88 136.93 129.11 135.991 130.096 133.07L123.08 126.809C127.264 123.782 131.204 120.441 134.896 116.895L140.435 121.591C143.758 112.511 142.773 102.597 137.358 91.8488C134.649 99.0483 130.341 104.372 124.435 108.024L129.358 112.199C125.542 116.059 121.603 119.294 117.665 121.798L107.449 112.199L111.756 108.858L108.064 105.309L103.756 108.65C103.756 108.546 103.633 108.44 103.511 108.336C97.109 101.867 91.6947 96.2312 87.5092 91.5355V88.301L96.3715 78.5951C102.402 71.7081 106.464 66.908 108.557 64.1942H121.725L121.973 64.4029C122.834 65.2375 123.819 65.7593 125.051 65.7593C126.281 65.7593 127.388 65.2375 128.128 64.4029C128.988 63.4634 129.358 62.4199 129.358 61.2725C129.358 60.2287 128.988 59.1851 128.128 58.1418C127.264 57.3062 126.281 56.8893 125.051 56.8893C123.942 56.8893 122.834 57.3062 121.973 58.1418L121.358 58.9767H112.742C122.588 46.245 128.495 36.0184 130.589 28.1917H109.665C112.126 36.4352 109.91 46.6629 103.14 58.9767H87.5089V53.8638C89.9718 53.4461 92.1854 52.715 94.2797 51.6718C97.6016 49.7936 99.2027 47.7065 99.2027 45.4104C99.2027 42.9064 97.6016 40.8193 94.2797 39.1488C92.6787 38.3142 90.9546 37.6886 89.108 37.2706C87.5086 36.8529 85.6627 36.645 83.57 36.5399C80.9859 36.6448 78.8935 36.8527 77.5393 37.2706C75.9395 37.4785 74.4622 38.0003 72.8625 38.836C72.7394 38.836 72.4929 38.9398 72.2471 39.1488C69.0469 40.7144 67.3238 42.8015 67.3238 45.4104C67.3238 47.8103 69.0469 49.8974 72.2471 51.6718L73.7237 52.4025C75.57 53.0284 77.2934 53.5499 78.8932 53.8641V58.977H63.2614C56.615 46.5591 54.3999 36.2276 56.8618 28.1919H35.9376C38.0296 35.9137 43.9379 46.2452 53.7848 58.977H45.0459L44.4305 58.1421C43.6917 57.3064 42.7074 56.8896 41.4766 56.8896C40.2457 56.8896 39.2608 57.3064 38.3995 58.1421C37.6613 58.9764 37.169 60.0197 37.169 61.2725V61.2725ZM82.9552 38.5218H83.0783C86.648 38.7319 89.4789 39.3575 91.6943 40.5051C94.1553 41.6525 95.3862 43.3227 95.3862 45.3049C95.3862 47.1842 94.155 48.7495 91.6943 50.1059C89.3561 51.1494 86.8941 51.7761 84.1857 51.984L83.3244 52.0881H83.2014C83.0783 51.984 82.9549 51.984 82.8324 51.984H82.5863C79.7557 51.7761 77.2941 51.1494 75.2014 50.1059C72.4932 48.7495 71.2624 47.1842 71.2624 45.3049C71.2624 43.3227 72.4932 41.6525 75.2014 40.5051C77.1707 39.3575 79.7557 38.7319 82.8328 38.5218H82.9552ZM66.3391 64.1942H78.8938V81.6217L75.3244 76.9257C72.3708 72.9593 69.2937 68.6812 66.3391 64.1942V64.1942ZM87.5092 64.1942H100.064C96.7417 69.6207 93.2941 74.4208 89.8481 78.5951L87.5092 81.6217V64.1942V64.1942ZM100.925 110.841L96.6176 114.076L100.309 117.52L104.494 114.389L114.096 123.885C107.571 127.33 100.679 129.207 93.6646 129.417C92.4335 129.311 90.4635 127.642 87.5092 124.615V97.2748C92.679 102.596 96.9866 106.981 100.679 110.527C100.679 110.633 100.802 110.737 100.925 110.841ZM65.724 110.841L78.8941 97.2748V124.615L78.2787 125.347C75.694 127.956 73.9709 129.312 72.8631 129.417C65.8474 129.207 59.0776 127.33 52.4312 123.885L62.1547 114.389L66.0936 117.416L69.7861 113.971L65.724 110.841V110.841Z" fill="white"/>
</g>
<defs>
<clipPath id="clip0_2506_189">
<rect width="167" height="167" fill="white"/>
</clipPath>
</defs>
</svg>
